<svg xmlns="http://www.w3.org/2000/svg" viewBox="0 0 1238 151.76"><defs><style>.cls-1{fill:#fff;}</style></defs><g id="Camada_2" data-name="Camada 2"><g id="goldeRatioEt"><path class="cls-1" d="M110.75,26.59a72.59,72.59,0,0,0-24.13-15A84.7,84.7,0,0,0,55.84,6.14H0V149.31H55.84a83.06,83.06,0,0,0,30.78-5.53,74,74,0,0,0,24.13-15.13A66.73,66.73,0,0,0,126.4,106a71.93,71.93,0,0,0,5.52-28.23v-.41a71.14,71.14,0,0,0-5.52-28.12A66.92,66.92,0,0,0,110.75,26.59ZM99,78.13a45.77,45.77,0,0,1-3.17,17.39A41.12,41.12,0,0,1,87,109a37.91,37.91,0,0,1-13.6,8.8,48.78,48.78,0,0,1-17.59,3.07H31.5V34.57H55.84a47.14,47.14,0,0,1,17.59,3.17A39.07,39.07,0,0,1,87,46.63a40.76,40.76,0,0,1,8.79,13.71A46.68,46.68,0,0,1,99,77.72Z"></path><path class="cls-1" d="M246,55.73a48.33,48.33,0,0,0-16.67-13.19q-10-4.9-23.73-4.91a52.79,52.79,0,0,0-22,4.5,52.21,52.21,0,0,0-17.07,12.28,56,56,0,0,0-11.15,18.2,61.25,61.25,0,0,0-4,22.09v.41a59.3,59.3,0,0,0,4.3,23,53.89,53.89,0,0,0,12,17.89,52.74,52.74,0,0,0,18.2,11.66,62.45,62.45,0,0,0,22.81,4.09q14.92,0,26-5.42a55.07,55.07,0,0,0,18.82-15l-17.79-15.75a47.29,47.29,0,0,1-12.68,8.59A34.72,34.72,0,0,1,209,126.81q-10.44,0-17.49-5.42t-9.31-16.06h76.3c.13-1.5.23-2.79.3-3.88s.1-2.39.1-3.89v-.41a78.38,78.38,0,0,0-3.17-22.39A54.91,54.91,0,0,0,246,55.73ZM181.83,85.9q1.83-10.64,7.87-17t15.85-6.34q9.82,0,15.75,6.44t7.36,16.87Z"></path><path class="cls-1" d="M351.58,93.67A47.84,47.84,0,0,0,341,87.44Q335,84.88,329.29,83c-3-1-5.83-1.91-8.49-2.86a65.77,65.77,0,0,1-7.05-3,20.11,20.11,0,0,1-4.91-3.27A5.34,5.34,0,0,1,307,70v-.41a6.52,6.52,0,0,1,2.86-5.42Q312.72,62,318.45,62a41.71,41.71,0,0,1,13.7,2.76,97.85,97.85,0,0,1,16,7.47L360,50.72a78.47,78.47,0,0,0-19.74-9.3A70.33,70.33,0,0,0,319.06,38a52.51,52.51,0,0,0-15.64,2.25A36.42,36.42,0,0,0,290.74,47,32.19,32.19,0,0,0,279,72.81v.41a28.18,28.18,0,0,0,3,13.5A30.12,30.12,0,0,0,289.61,96a41.39,41.39,0,0,0,10.53,6.13,115.75,115.75,0,0,0,11.56,4c3,1,5.86,1.84,8.59,2.66a72.41,72.41,0,0,1,7.26,2.56,15.36,15.36,0,0,1,5,3.17,5.86,5.86,0,0,1,1.84,4.29v.41a6.92,6.92,0,0,1-3.17,5.93q-3.17,2.25-9.92,2.25a48.47,48.47,0,0,1-16.67-3.27,73.84,73.84,0,0,1-17.89-9.82l-13.3,20.46a76.9,76.9,0,0,0,47,16.56A60.5,60.5,0,0,0,337,149.2a40.19,40.19,0,0,0,13.4-6.44,29.11,29.11,0,0,0,8.89-10.94A36.44,36.44,0,0,0,362.42,116v-.41a25.48,25.48,0,0,0-3.06-12.89A31.1,31.1,0,0,0,351.58,93.67Z"></path><path class="cls-1" d="M474,55.73a48.24,48.24,0,0,0-16.67-13.19q-10-4.9-23.72-4.91a52,52,0,0,0-39.07,16.78,56,56,0,0,0-11.14,18.2,61.25,61.25,0,0,0-4,22.09v.41a59.48,59.48,0,0,0,4.29,23,53.92,53.92,0,0,0,12,17.89,52.74,52.74,0,0,0,18.2,11.66,62.38,62.38,0,0,0,22.81,4.09q14.93,0,26-5.42a55.16,55.16,0,0,0,18.82-15l-17.8-15.75A47.13,47.13,0,0,1,451,124.15a34.67,34.67,0,0,1-13.9,2.66q-10.44,0-17.49-5.42t-9.31-16.06h76.29c.14-1.5.24-2.79.31-3.88s.1-2.39.1-3.89v-.41a78.73,78.73,0,0,0-3.17-22.39A54.93,54.93,0,0,0,474,55.73ZM409.87,85.9q1.85-10.64,7.88-17t15.85-6.34q9.81,0,15.75,6.44t7.36,16.87Z"></path><path class="cls-1" d="M573.29,37.63a36.31,36.31,0,0,0-10.64,1.45A35,35,0,0,0,554.06,43a40.55,40.55,0,0,0-7,5.67,65.39,65.39,0,0,0-5.83,6.69V39.68H510.09V149.31h31.09v-61q0-11,5.21-16.63t14.22-5.61q9,0,13.91,5.61t4.91,16.63v61h31.08v-71q0-19-9.71-29.86T573.29,37.63Z"></path><path class="cls-1" d="M735.07,131.41q-10.64,5.42-25.36,5.42a52.48,52.48,0,0,1-22-4.6,55,55,0,0,1-17.59-12.58,57.67,57.67,0,0,1-11.66-18.82,64.15,64.15,0,0,1-4.19-23.31,63.4,63.4,0,0,1,4.19-23.22,57.9,57.9,0,0,1,11.66-18.71,53.38,53.38,0,0,1,39.58-17q14.73,0,25.26,5.52A90.53,90.53,0,0,1,754.7,38.25l11-11.87a110,110,0,0,0-11-9.3,66.39,66.39,0,0,0-12.47-7.16,73.82,73.82,0,0,0-14.63-4.6,87.29,87.29,0,0,0-17.69-1.64,71.44,71.44,0,0,0-29,5.83,69.91,69.91,0,0,0-22.91,16,73.89,73.89,0,0,0-15,23.63,76.53,76.53,0,0,0-5.42,28.84,77.08,77.08,0,0,0,5.42,29,71.44,71.44,0,0,0,15,23.42,70.43,70.43,0,0,0,51.34,21.37,79.07,79.07,0,0,0,17.79-1.84A74.15,74.15,0,0,0,742,144.81a71.28,71.28,0,0,0,13-7.88,103,103,0,0,0,11.56-10.33l-10.64-10.43A88.13,88.13,0,0,1,735.07,131.41Z"></path><path class="cls-1" d="M878.24,57.58a55.23,55.23,0,0,0-17.49-11.87,54.77,54.77,0,0,0-73.12,29.66,56.48,56.48,0,0,0-4.09,21.37A55.67,55.67,0,0,0,787.63,118a53.2,53.2,0,0,0,11.46,17.49,55.22,55.22,0,0,0,17.38,11.86,53.91,53.91,0,0,0,21.89,4.4,55.42,55.42,0,0,0,22.09-4.4,54.24,54.24,0,0,0,17.59-12,56.68,56.68,0,0,0,11.65-60.34A53.24,53.24,0,0,0,878.24,57.58Zm-3.48,55.07a39.92,39.92,0,0,1-8,13,36.72,36.72,0,0,1-12.28,8.67,38.49,38.49,0,0,1-15.74,3.16,36.94,36.94,0,0,1-15.55-3.26,39.32,39.32,0,0,1-12.37-8.77,39.91,39.91,0,0,1-8.18-13.06,43.6,43.6,0,0,1-3-16.12,44.18,44.18,0,0,1,2.86-16,42,42,0,0,1,7.88-13.06,35.06,35.06,0,0,1,12.17-8.77,38.51,38.51,0,0,1,15.75-3.17,37,37,0,0,1,15.54,3.27,39.87,39.87,0,0,1,12.48,8.87,40.51,40.51,0,0,1,8.28,13.16,45.8,45.8,0,0,1,.1,32.13Z"></path><path class="cls-1" d="M1007.09,63.81a65.58,65.58,0,0,0-7.05-8.59,48.26,48.26,0,0,0-8.9-7.16,45.19,45.19,0,0,0-11-4.9,46.73,46.73,0,0,0-13.5-1.84A47.6,47.6,0,0,0,948,45.1a51.15,51.15,0,0,0-16.16,10.84,52.42,52.42,0,0,0-11.45,17.28,59.82,59.82,0,0,0-4.3,23.32,59.73,59.73,0,0,0,4.3,23.31,52.47,52.47,0,0,0,11.45,17.29A49.86,49.86,0,0,0,948,147.88a48.78,48.78,0,0,0,18.61,3.68,46,46,0,0,0,13.4-1.84,41.17,41.17,0,0,0,10.94-5.12,49.6,49.6,0,0,0,8.9-7.56,83.12,83.12,0,0,0,7.26-9v21.27h15.75V0h-15.75Zm-2.56,49.31a38.4,38.4,0,0,1-8.59,12.93,40.13,40.13,0,0,1-12.27,8.24,35.51,35.51,0,0,1-14.21,3,36.42,36.42,0,0,1-14.32-2.85,34.73,34.73,0,0,1-11.86-8.24,39.57,39.57,0,0,1-8.08-12.92,45.71,45.71,0,0,1-3-16.9,47.06,47.06,0,0,1,3-17.19,37.73,37.73,0,0,1,8-12.82,33.93,33.93,0,0,1,11.76-7.94,38.14,38.14,0,0,1,14.52-2.75,35.69,35.69,0,0,1,14.21,2.95,40.16,40.16,0,0,1,12.27,8.25,38.62,38.62,0,0,1,8.59,12.82,42.46,42.46,0,0,1,3.17,16.68A43.19,43.19,0,0,1,1004.53,113.12Z"></path><path class="cls-1" d="M1138.6,57.68a45.83,45.83,0,0,0-15.54-12,51.11,51.11,0,0,0-41.22-.1,49.12,49.12,0,0,0-16,11.76A54.39,54.39,0,0,0,1055.25,75a61.18,61.18,0,0,0-3.78,21.58,58.15,58.15,0,0,0,4.25,22.5,53.64,53.64,0,0,0,11.45,17.48A50.77,50.77,0,0,0,1084,147.77a52.8,52.8,0,0,0,20.45,4q15.13,0,25.36-5.42A64.64,64.64,0,0,0,1148,131.92l-9.82-8.79A56,56,0,0,1,1123.77,134q-7.87,4.09-18.92,4.09a38,38,0,0,1-13.29-2.35,35.26,35.26,0,0,1-11.45-7,36.82,36.82,0,0,1-8.39-11.25,43.5,43.5,0,0,1-4.09-15.24h83.65a19.75,19.75,0,0,0,.2-2.65V97.36a71.46,71.46,0,0,0-3.27-21.89A52.17,52.17,0,0,0,1138.6,57.68Zm-71,32.93a48.22,48.22,0,0,1,3.66-14.32,39.63,39.63,0,0,1,7.32-11.35A33.4,33.4,0,0,1,1089,57.37a29.83,29.83,0,0,1,12.81-2.76,31,31,0,0,1,13.93,3,31.5,31.5,0,0,1,10.17,7.87,36.62,36.62,0,0,1,6.5,11.45,54.38,54.38,0,0,1,2.95,13.71Z"></path><path class="cls-1" d="M1223.89,43.57a41.52,41.52,0,0,0-12.07,6,48.3,48.3,0,0,0-9.82,9.51,56.37,56.37,0,0,0-7.16,12.07V43.57H1179.1V149.31h15.74V107.17a61.62,61.62,0,0,1,3.28-21,43.56,43.56,0,0,1,9-15.24,36.72,36.72,0,0,1,13.39-9.2,43.33,43.33,0,0,1,16.26-3.07H1238v-17A43.07,43.07,0,0,0,1223.89,43.57Z"></path></g></g></svg>