<svg xmlns="http://www.w3.org/2000/svg" xmlns:xlink="http://www.w3.org/1999/xlink" viewBox="0 0 1417.08 1008.97"><defs><style>.cls-1{fill:#43a0e7;}.cls-2,.cls-3,.cls-4,.cls-5{isolation:isolate;}.cls-2{fill:url(#Gradiente_sem_nome_29);}.cls-3{fill:url(#Gradiente_sem_nome_29-2);}.cls-4{fill:url(#Gradiente_sem_nome_29-3);}.cls-5{fill:url(#Gradiente_sem_nome_29-4);}.cls-6{fill:url(#Gradiente_sem_nome_30);}.cls-7{fill:url(#Gradiente_sem_nome_31);}.cls-8{fill:url(#Gradiente_sem_nome_31-2);}.cls-9{fill:url(#Gradiente_sem_nome_31-3);}.cls-10{fill:url(#Gradiente_sem_nome_31-4);}.cls-11{fill:url(#Gradiente_sem_nome_32);}.cls-12{fill:url(#Gradiente_sem_nome_53);}.cls-13{fill:url(#Gradiente_sem_nome_107);}.cls-14{fill:url(#Gradiente_sem_nome_118);}.cls-15{fill:url(#Gradiente_sem_nome_107-2);}.cls-16{fill:url(#Gradiente_sem_nome_48);}.cls-17{fill:url(#Gradiente_sem_nome_88);}.cls-18{fill:url(#Gradiente_sem_nome_35);}.cls-19{fill:url(#Gradiente_sem_nome_43);}.cls-20{fill:url(#Gradiente_sem_nome_48-2);}.cls-21{fill:url(#Gradiente_sem_nome_48-3);}.cls-22{fill:url(#Gradiente_sem_nome_82);}.cls-23{fill:url(#Gradiente_sem_nome_88-2);}.cls-24{fill:url(#Gradiente_sem_nome_35-2);}.cls-25{fill:url(#Gradiente_sem_nome_43-2);}.cls-26{fill:url(#Gradiente_sem_nome_48-4);}.cls-27{fill:url(#Gradiente_sem_nome_48-5);}.cls-28{fill:url(#Gradiente_sem_nome_82-2);}.cls-29{fill:url(#Gradiente_sem_nome_73);}.cls-30{fill:url(#Gradiente_sem_nome_73-2);}.cls-31{fill:url(#Gradiente_sem_nome_93);}.cls-32{fill:url(#Gradiente_sem_nome_73-3);}.cls-33{fill:url(#Gradiente_sem_nome_93-2);}.cls-34{fill:url(#Gradiente_sem_nome_102);}.cls-35{fill:url(#Gradiente_sem_nome_102-2);}.cls-36{fill:url(#Gradiente_sem_nome_111);}.cls-37{fill:url(#Gradiente_sem_nome_113);}</style><linearGradient id="Gradiente_sem_nome_29" x1="1057.02" y1="211.67" x2="382.24" y2="211.67" gradientUnits="userSpaceOnUse"><stop offset="0" stop-color="#44d4e7"></stop><stop offset="0.28" stop-color="#44d1e5"></stop><stop offset="0.48" stop-color="#42c8e0"></stop><stop offset="0.65" stop-color="#3fb8d7"></stop><stop offset="0.81" stop-color="#3ca2ca"></stop><stop offset="0.96" stop-color="#3786ba"></stop><stop offset="1" stop-color="#357cb4"></stop></linearGradient><linearGradient id="Gradiente_sem_nome_29-2" x1="417.32" y1="143.32" x2="803.13" y2="143.32" xlink:href="#Gradiente_sem_nome_29"></linearGradient><linearGradient id="Gradiente_sem_nome_29-3" x1="548.51" y1="196.92" x2="738.57" y2="196.92" xlink:href="#Gradiente_sem_nome_29"></linearGradient><linearGradient id="Gradiente_sem_nome_29-4" x1="656" y1="227.23" x2="738.27" y2="227.23" xlink:href="#Gradiente_sem_nome_29"></linearGradient><linearGradient id="Gradiente_sem_nome_30" x1="658.32" y1="211.67" x2="1071.8" y2="211.67" gradientUnits="userSpaceOnUse"><stop offset="0" stop-color="#44d4e7"></stop><stop offset="0.06" stop-color="#41c5de"></stop><stop offset="0.19" stop-color="#3daacf"></stop><stop offset="0.34" stop-color="#3996c3"></stop><stop offset="0.5" stop-color="#3787ba"></stop><stop offset="0.69" stop-color="#357fb6"></stop><stop offset="1" stop-color="#357cb4"></stop></linearGradient><linearGradient id="Gradiente_sem_nome_31" x1="360.06" y1="462.25" x2="1034.84" y2="462.25" gradientUnits="userSpaceOnUse"><stop offset="0" stop-color="#fab1a0"></stop><stop offset="0.24" stop-color="#faaba1"></stop><stop offset="0.58" stop-color="#fb99a3"></stop><stop offset="0.97" stop-color="#fd7ba8"></stop><stop offset="1" stop-color="#fd79a8"></stop></linearGradient><linearGradient id="Gradiente_sem_nome_31-2" x1="613.95" y1="530.59" x2="999.76" y2="530.59" xlink:href="#Gradiente_sem_nome_31"></linearGradient><linearGradient id="Gradiente_sem_nome_31-3" x1="678.51" y1="477" x2="868.57" y2="477" xlink:href="#Gradiente_sem_nome_31"></linearGradient><linearGradient id="Gradiente_sem_nome_31-4" x1="678.81" y1="446.68" x2="761.08" y2="446.68" xlink:href="#Gradiente_sem_nome_31"></linearGradient><linearGradient id="Gradiente_sem_nome_32" x1="620.86" y1="-4268.36" x2="1034.34" y2="-4268.36" gradientTransform="translate(1379.67 -3806.22) rotate(180)" gradientUnits="userSpaceOnUse"><stop offset="0" stop-color="#fab1a0"></stop><stop offset="0.21" stop-color="#fb9ba3"></stop><stop offset="0.46" stop-color="#fc88a6"></stop><stop offset="0.73" stop-color="#fd7da7"></stop><stop offset="1" stop-color="#fd79a8"></stop></linearGradient><linearGradient id="Gradiente_sem_nome_53" y1="898.92" x2="193.12" y2="898.92" gradientUnits="userSpaceOnUse"><stop offset="0" stop-color="#1b1c1c"></stop><stop offset="0.16" stop-color="#1e2020"></stop><stop offset="0.55" stop-color="#202323"></stop><stop offset="1" stop-color="#151616"></stop></linearGradient><linearGradient id="Gradiente_sem_nome_107" x1="648.05" y1="983.32" x2="536.44" y2="871.72" gradientUnits="userSpaceOnUse"><stop offset="0" stop-color="#1b1c1c"></stop><stop offset="0.08" stop-color="#1c1e1e"></stop><stop offset="0.48" stop-color="#202323"></stop><stop offset="0.51" stop-color="#1e2121"></stop><stop offset="0.69" stop-color="#171818"></stop><stop offset="1" stop-color="#151616"></stop></linearGradient><linearGradient id="Gradiente_sem_nome_118" x1="680.05" y1="898.92" x2="874.38" y2="898.92" gradientUnits="userSpaceOnUse"><stop offset="0" stop-color="#1b1c1c"></stop><stop offset="0.47" stop-color="#202323"></stop><stop offset="0.51" stop-color="#1c1f1f"></stop><stop offset="0.64" stop-color="#171818"></stop><stop offset="1" stop-color="#151616"></stop></linearGradient><linearGradient id="Gradiente_sem_nome_107-2" x1="1194.65" y1="981.01" x2="1084.27" y2="870.63" xlink:href="#Gradiente_sem_nome_107"></linearGradient><linearGradient id="Gradiente_sem_nome_48" x1="3891.77" y1="1005" x2="3891.77" y2="837.53" gradientTransform="matrix(-1, 0, 0, 1, 3968.77, 0)" gradientUnits="userSpaceOnUse"><stop offset="0" stop-color="#1b1c1c"></stop><stop offset="0.47" stop-color="#202323"></stop><stop offset="0.49" stop-color="#1f2121"></stop><stop offset="0.69" stop-color="#171919"></stop><stop offset="1" stop-color="#151616"></stop></linearGradient><linearGradient id="Gradiente_sem_nome_88" x1="159.8" y1="985.95" x2="328.99" y2="888.27" gradientUnits="userSpaceOnUse"><stop offset="0" stop-color="#1b1c1c"></stop><stop offset="0.12" stop-color="#1f2121"></stop><stop offset="0.52" stop-color="#202323"></stop><stop offset="0.81" stop-color="#1e2121"></stop><stop offset="0.97" stop-color="#171919"></stop><stop offset="1" stop-color="#151616"></stop></linearGradient><linearGradient id="Gradiente_sem_nome_35" x1="211.45" y1="999.69" x2="211.45" y2="896.75" gradientUnits="userSpaceOnUse"><stop offset="0" stop-color="#1b1c1c"></stop><stop offset="0.02" stop-color="#1c1e1e"></stop><stop offset="0.13" stop-color="#202323"></stop><stop offset="0.4" stop-color="#1c1e1e"></stop><stop offset="1" stop-color="#151616"></stop></linearGradient><linearGradient id="Gradiente_sem_nome_43" x1="157.66" y1="981.68" x2="255.61" y2="981.68" gradientUnits="userSpaceOnUse"><stop offset="0" stop-color="#1b1c1c"></stop><stop offset="0.39" stop-color="#1c1e1e"></stop><stop offset="0.51" stop-color="#202323"></stop><stop offset="0.72" stop-color="#191b1b"></stop><stop offset="1" stop-color="#151616"></stop></linearGradient><linearGradient id="Gradiente_sem_nome_48-2" x1="230.32" y1="993.5" x2="261.59" y2="962.23" gradientTransform="matrix(1, 0, 0, 1, 0, 0)" xlink:href="#Gradiente_sem_nome_48"></linearGradient><linearGradient id="Gradiente_sem_nome_48-3" x1="208" y1="960.91" x2="268.6" y2="900.3" gradientTransform="matrix(1, 0, 0, 1, 0, 0)" xlink:href="#Gradiente_sem_nome_48"></linearGradient><linearGradient id="Gradiente_sem_nome_82" x1="275.64" y1="1005.47" x2="275.64" y2="856.83" gradientUnits="userSpaceOnUse"><stop offset="0" stop-color="#1b1c1c"></stop><stop offset="0.38" stop-color="#1e2121"></stop><stop offset="0.47" stop-color="#202323"></stop><stop offset="0.51" stop-color="#1d1f1f"></stop><stop offset="0.66" stop-color="#171818"></stop><stop offset="1" stop-color="#151616"></stop></linearGradient><linearGradient id="Gradiente_sem_nome_88-2" x1="877.8" y1="986.95" x2="1046.99" y2="889.27" xlink:href="#Gradiente_sem_nome_88"></linearGradient><linearGradient id="Gradiente_sem_nome_35-2" x1="929.45" y1="1000.69" x2="929.45" y2="897.75" xlink:href="#Gradiente_sem_nome_35"></linearGradient><linearGradient id="Gradiente_sem_nome_43-2" x1="875.66" y1="982.68" x2="973.61" y2="982.68" xlink:href="#Gradiente_sem_nome_43"></linearGradient><linearGradient id="Gradiente_sem_nome_48-4" x1="948.32" y1="994.5" x2="979.59" y2="963.23" gradientTransform="matrix(1, 0, 0, 1, 0, 0)" xlink:href="#Gradiente_sem_nome_48"></linearGradient><linearGradient id="Gradiente_sem_nome_48-5" x1="926" y1="961.91" x2="986.6" y2="901.3" gradientTransform="matrix(1, 0, 0, 1, 0, 0)" xlink:href="#Gradiente_sem_nome_48"></linearGradient><linearGradient id="Gradiente_sem_nome_82-2" x1="993.64" y1="1006.47" x2="993.64" y2="857.83" xlink:href="#Gradiente_sem_nome_82"></linearGradient><linearGradient id="Gradiente_sem_nome_73" x1="393.06" y1="968.94" x2="398.15" y2="963.84" gradientUnits="userSpaceOnUse"><stop offset="0" stop-color="#1b1c1c"></stop><stop offset="0.52" stop-color="#202323"></stop><stop offset="0.53" stop-color="#202222"></stop><stop offset="0.73" stop-color="#181919"></stop><stop offset="1" stop-color="#151616"></stop></linearGradient><linearGradient id="Gradiente_sem_nome_73-2" x1="331.7" y1="898.92" x2="521.08" y2="898.92" xlink:href="#Gradiente_sem_nome_73"></linearGradient><linearGradient id="Gradiente_sem_nome_93" x1="454.76" y1="1005.47" x2="454.76" y2="915.89" gradientUnits="userSpaceOnUse"><stop offset="0" stop-color="#1b1c1c"></stop><stop offset="0.05" stop-color="#1c1e1e"></stop><stop offset="0.28" stop-color="#202323"></stop><stop offset="0.34" stop-color="#1c1f1f"></stop><stop offset="0.51" stop-color="#171818"></stop><stop offset="1" stop-color="#151616"></stop></linearGradient><linearGradient id="Gradiente_sem_nome_73-3" x1="1227.7" y1="898.92" x2="1417.08" y2="898.92" xlink:href="#Gradiente_sem_nome_73"></linearGradient><linearGradient id="Gradiente_sem_nome_93-2" x1="1350.76" y1="1005.47" x2="1350.76" y2="915.89" xlink:href="#Gradiente_sem_nome_93"></linearGradient><linearGradient id="Gradiente_sem_nome_102" x1="587.46" y1="845.85" x2="587.46" y2="1008.38" gradientUnits="userSpaceOnUse"><stop offset="0" stop-color="#1b1c1c"></stop><stop offset="0.07" stop-color="#1c1e1e"></stop><stop offset="0.47" stop-color="#202323"></stop><stop offset="0.61" stop-color="#1c1e1e"></stop><stop offset="1" stop-color="#151616"></stop></linearGradient><linearGradient id="Gradiente_sem_nome_102-2" x1="1135.3" y1="845.99" x2="1135.3" y2="1008.52" xlink:href="#Gradiente_sem_nome_102"></linearGradient><linearGradient id="Gradiente_sem_nome_111" x1="842.75" y1="895.19" x2="770.9" y2="823.33" gradientUnits="userSpaceOnUse"><stop offset="0" stop-color="#1b1c1c"></stop><stop offset="0.11" stop-color="#1f2121"></stop><stop offset="0.47" stop-color="#202323"></stop><stop offset="0.7" stop-color="#191a1a"></stop><stop offset="1" stop-color="#151616"></stop></linearGradient><linearGradient id="Gradiente_sem_nome_113" x1="835.83" y1="991.81" x2="771.51" y2="927.49" gradientUnits="userSpaceOnUse"><stop offset="0" stop-color="#1b1c1c"></stop><stop offset="0.11" stop-color="#1f2121"></stop><stop offset="0.47" stop-color="#202323"></stop><stop offset="1" stop-color="#151616"></stop></linearGradient></defs><g id="Camada_2" data-name="Camada 2"><g id="Camada_1-2" data-name="Camada 1"><path class="cls-1" d="M392.29,71.5c26.08-10.09,249-101.61,420-61.3C887,27.79,951.74,70.52,985.92,156.13c8.05,20.19,16,41.47,23.8,63.5,6.81,19.24,13.48,39.06,20,59.18v0c6.36,19.8,12.53,39.91,18.43,60.1q4.56,15.56,8.91,31.15h0c-11.39,31.73-33.43,53.22-58.74,53.22-11.62,0-22.55-4.52-32.08-12.5-6.78-33.37-14.46-68-23.3-102.16q-3.35-13-6.93-25.76-4.44-15.93-9.27-31.5c-5.62-18.08-11.63-35.69-18.08-52.52C882,129.31,847.82,73.09,803.13,51.75c-26.9-12.85-57.65-13.07-92.87,4-83.93,40.76-148.82,60.86-197.88,68.39C388.25,143.22,365.42,81.9,392.29,71.5Z"></path><path class="cls-2" d="M1057,370.1h0c-11.39,31.72-33.43,53.22-58.74,53.22-11.62,0-22.55-4.53-32.08-12.51-6.78-33.37-14.46-68-23.3-102.16q-3.35-12.95-6.93-25.76-4.44-15.93-9.27-31.5c-5.62-18.08-11.63-35.69-18.08-52.52-19.91-51.93-44-96.42-73.49-124.52l0,0a124.6,124.6,0,0,0-32-22.56c-26.9-12.85-57.65-13.06-92.87,4-83.93,40.77-148.82,60.86-197.88,68.39-124.13,19-147-42.27-120.09-52.66C410.18,64.58,520.7,19.34,643.54,4.63,699.79-2.11,758.6-2.45,812.3,10.2,887,27.79,951.74,70.53,985.92,156.13c8.05,20.19,16,41.48,23.8,63.5,6.81,19.25,13.48,39.06,20,59.18v0c6.36,19.8,12.53,39.91,18.43,60.1Q1052.67,354.5,1057,370.1Z"></path><path class="cls-3" d="M423.56,195.7c8.51-6.55,41.49-32.73,88.82-63.07,43.81-6.72,100.26-23.48,171.62-56q12.79-5.85,26.26-12.38a130.41,130.41,0,0,1,38-12.21,93.13,93.13,0,0,1,54.91,8.17c-21.58-1.45-43.18,4.44-64.56,19.55a147.13,147.13,0,0,0-14.26,11.49c-55.62,50.47-103.16,84.62-143,107C446.24,274,398.94,214.58,423.56,195.7Z"></path><path class="cls-4" d="M549.77,280.81c3.27-8.11,13.93-35.76,31.5-72.89C612.66,190.3,648.8,165.4,689.89,131q16.67-14,34.42-30.06,3.27-3,6.55-5.64,3.85-3.14,7.71-5.84-3,8.39-6.12,16.36C706.91,172.23,680.53,218,656,248.63,591.44,329.37,539.71,305.7,549.77,280.81Z"></path><path class="cls-5" d="M656,267.11c24.53-30.67,50.91-76.39,76.45-142.83,29.21,203.87-60.65,226.8-67.22,193.18C664,311,660.16,293,656,267.11Z"></path><path class="cls-6" d="M1057,370.1h0c-11.39,31.72-33.43,53.22-58.74,53.22-11.62,0-22.55-4.53-32.08-12.51-6.78-33.37-14.46-68-23.3-102.16q-3.35-12.95-6.93-25.76-4.44-15.93-9.27-31.5c-5.62-18.08-11.63-35.69-18.08-52.52-19.91-51.93-44-96.42-73.49-124.52l0,0C786.9,22.82,643.54,4.63,643.54,4.63,699.79-2.11,758.6-2.45,812.3,10.2,887,27.79,951.74,70.53,985.92,156.13c8.05,20.19,16,41.48,23.8,63.5,6.81,19.25,13.48,39.06,20,59.18v0c6.36,19.8,12.53,39.91,18.43,60.1Q1052.67,354.5,1057,370.1Z"></path><path class="cls-7" d="M1024.79,602.41c-26.08,10.09-249,101.61-420,61.3-74.66-17.59-139.44-60.32-173.62-145.93-8.05-20.19-16-41.47-23.8-63.5-6.81-19.24-13.48-39.06-19.95-59.18,0,0,0,0,0,0C381,375.27,374.87,355.16,369,335q-4.56-15.56-8.91-31.15h0c11.39-31.72,33.43-53.22,58.74-53.22,11.62,0,22.55,4.53,32.08,12.5,6.78,33.37,14.46,68,23.3,102.16q3.35,13,6.93,25.76,4.44,15.93,9.27,31.5C496,440.59,502,458.2,508.46,475,535.13,544.6,569.26,600.82,614,622.16c26.9,12.85,57.65,13.07,92.87-4,83.93-40.76,148.82-60.86,197.88-68.39C1028.83,530.69,1051.66,592,1024.79,602.41Z"></path><path class="cls-8" d="M993.52,478.22C985,484.76,952,510.94,904.7,541.28c-43.81,6.72-100.26,23.48-171.62,56q-12.8,5.87-26.26,12.38a130.41,130.41,0,0,1-38,12.21A93.13,93.13,0,0,1,614,613.7c21.58,1.45,43.18-4.44,64.56-19.55a147.13,147.13,0,0,0,14.26-11.49c55.62-50.47,103.16-84.62,143-107C970.84,400,1018.14,459.33,993.52,478.22Z"></path><path class="cls-9" d="M867.31,393.1c-3.27,8.11-13.93,35.76-31.5,72.89-31.39,17.62-67.53,42.52-108.62,76.94q-16.66,14-34.42,30.06-3.27,3-6.55,5.64-3.86,3.14-7.71,5.85,3-8.4,6.12-16.36c25.54-66.44,51.92-112.17,76.45-142.83C825.64,344.54,877.37,368.21,867.31,393.1Z"></path><path class="cls-10" d="M761.08,406.8c-24.53,30.67-50.91,76.39-76.45,142.83-29.21-203.87,60.65-226.8,67.22-193.18C753.12,362.91,756.92,380.93,761.08,406.8Z"></path><path class="cls-11" d="M360.11,303.72h0c11.4-31.72,33.43-53.22,58.75-53.22,11.62,0,22.54,4.53,32.07,12.5,6.79,33.37,14.47,68,23.3,102.16q3.34,13,6.94,25.76,4.43,15.93,9.27,31.5c5.62,18.08,11.62,35.69,18.08,52.52,19.9,51.94,44,96.42,73.49,124.52,0,0,0,0,0,.06,48.18,51.49,191.54,69.68,191.54,69.68-56.24,6.74-115.05,7.08-168.75-5.58C530.17,646,465.4,603.29,431.22,517.68c-8.05-20.19-16-41.47-23.8-63.5-6.81-19.24-13.49-39.06-20-59.18v0c-6.36-19.8-12.52-39.91-18.43-60.1Q364.46,319.32,360.11,303.72Z"></path><path class="cls-12" d="M7.91,792.37,0,839H64.1l-3.23,19.55L36.63,1005.47h57L121.12,839h64.09l7.91-46.62Z"></path><path class="cls-13" d="M605.15,843.56a103.74,103.74,0,0,0-22,2.29c-38.31,8.25-65.9,38.24-72.94,80.12-8.74,51.61,17.48,82.41,68.67,82.41,44.54,0,76.17-21.22,87.41-54.52H613.89c-.19.35-.39.69-.6,1l0,0c-3.72,6.07-9.93,10.16-17.26,12a37.78,37.78,0,0,1-9.18,1.1c-.24,0-.48,0-.71,0-8.67-.15-14.89-3.27-18.5-8.39-3.18-4.48-4.34-10.5-3.38-17.39a.18.18,0,0,1,0-.05.36.36,0,0,1,0-.14c0-.09,0-.21.05-.37a2.7,2.7,0,0,1,0-.28.15.15,0,0,0,0-.07c.54-3.58,2.58-17,4.63-27.3a62.9,62.9,0,0,1,2-7.66,29.77,29.77,0,0,1,3.53-8.26l.17-.29a30,30,0,0,1,25.41-13.85c14.15,0,22.89,9.57,20.81,23.31H574.08l-7.35,31.63h102.1l2.08-13.32C679.23,874.78,653.43,843.56,605.15,843.56Z"></path><path class="cls-14" d="M824.48,892.26c25.39-5,44.95-23.31,49.11-46.61,3.4-20.4-4.21-36.2-22.42-45.12-10.76-5.29-25.24-8.16-43.34-8.16h-92.4l-35.38,213.1H780.36c46.2,0,79.08-25.39,84.91-60.35,3.91-23.5-6.76-40.85-24.79-47.66-1-.38-2-.72-3.05-1l-.06,0c-.5-.14-1-.29-1.53-.42l-.18,0c-.38-.1-.76-.2-1.14-.28a53.24,53.24,0,0,0-10.46-1.33l0-.12ZM751.84,921l0-.22,1-6.43H753l8.76-51.71,0-.24,1.34-8.19v0l2.68-16.42h24.56c14.15,0,23.72,7.07,21.64,20.39-2.08,12.9-14.15,20.4-29.13,20.4h-22l-5.75,35.79h25.7c1.66,0,3.24.07,4.74.22q1.26.11,2.46.3c6.31,1,11.07,3.33,14.06,6.94h0c3.21,3.88,4.39,9.21,3.28,15.84-2.08,14.15-13.32,21.64-32.46,21.64H745.81Z"></path><path class="cls-15" d="M1219,912.24c6.66-41.62-18.32-68.68-65.35-68.68-52,0-88.65,33.3-96.56,82.41-8.32,49.12,17.06,82.41,69.09,82.41,47.45,0,80.75-27,88.65-69.5h-53.27c-4.16,16.65-14.57,25.8-27.47,25.8-15,0-22.48-12.9-18.31-39.12s16.23-39.13,31.63-39.13c12.48,0,19.56,9.16,18.31,25.81Z"></path><path class="cls-16" d="M64,839,37,1005H94l23-141c-3.13-16.54-14.25-26.47-28.25-26.47A182.83,182.83,0,0,0,64,839Z"></path><path class="cls-17" d="M321,875.49c-6.87-19-29.22-31.93-63.32-31.93-47.87,0-75.75,25-82.41,54.11h52.86c2.91-10,11.23-14.52,22.06-14.57,22.86-.1,16.66,25.18,16.08,30.6-1,8.77-11.85,69.68-12.2,71v0l-3.46,20.75h53.69L322.56,896A40.05,40.05,0,0,0,321,875.49Zm-66.19,79.9c-1.74,5.73-4.24,18.56-19.71,30.08A79.82,79.82,0,0,1,218,995c-22.23,9.32-55,7-60.15-28-2.29,27.76,16.32,41,44.84,41,12.6,0,23.82-2.59,33.48-8.62a57.56,57.56,0,0,0,16.69-16.09C256.47,969.79,255.86,960.63,254.76,955.39ZM230.26,926c-13.57,6.13-25.63,12.62-24.26,25,1.39,12.56,9.34,16.68,10,17-2.41-2.34-3.48-5.71-2.87-10,1.14-7.56,7.08-13.4,18.46-16,1.14-.26,2.34-.49,3.6-.68,4-.72,7.77-1.44,11.32-2.23a16.51,16.51,0,0,0,9.49-6.08l0-.06c7.68-10,8.92-27.79,9.05-36.25C264.48,912.06,246.31,918.78,230.26,926Z"></path><path class="cls-18" d="M206,951c1.39,12.56,9.34,16.68,10,17h0c2.53,2.46,6.56,3.77,11.68,3.77,10.83,0,22.25-5.87,27.1-16.37C252.52,962.78,249,982,218,995c-22.23,9.32-55,7-60.15-28q.21-2.73.72-5.66c5.83-35,33.71-48.28,67-50.78,26.72-2.05,37.6-4.92,39.47-13.82C264,925,203,924,206,951Z"></path><path class="cls-19" d="M252.86,983.26C240.39,1001,223.4,1008,202.69,1008c-28.52,0-47.13-13.2-44.84-41,5.15,35,37.92,37.31,60.15,28,31-13,34.52-32.22,36.76-39.61C255.86,960.63,256.47,969.79,252.86,983.26Z"></path><path class="cls-20" d="M252.86,983.26a57.56,57.56,0,0,1-16.69,16.09l-1.12-13.88c15.47-11.52,18-24.35,19.71-30.08C255.86,960.63,256.47,969.79,252.86,983.26Z"></path><path class="cls-21" d="M265,898.11l-.06.42c0,.3-.08.6-.13.9s-.07.33-.11.49-.11.52-.18.78-.09.34-.14.51-.14.48-.22.71-.13.35-.19.52-.17.45-.26.67-.15.35-.23.52-.2.42-.31.63-.17.34-.26.51-.22.4-.34.6l-.3.5-.38.58-.33.48-.42.56-.36.46c-.15.19-.31.37-.47.55l-.38.45-.5.54-.4.42-.63.6-.76.7c-.18.17-.37.34-.57.5l-.54.45-.52.42-.59.45-.53.4-.62.44-.54.39-.65.43-.56.37-.66.42-.58.36-.68.41-.61.36-.69.4-.64.36-.67.37-.71.38-.64.33-.82.43-.54.27-1.16.58-.23.11c-4.4,2.15-9.07,4.14-13.58,6.17h0c-13.57,6.12-25.63,12.61-24.26,25,1.39,12.56,9.34,16.68,10,17-2.41-2.34-3.48-5.71-2.87-10,1.16-7.69,7.31-13.6,19.07-16.1l.79-.16c.72-.14,1.44-.27,2.2-.39,4-.72,7.77-1.44,11.32-2.23a16.51,16.51,0,0,0,9.49-6.08l0-.06c7.68-10,8.92-27.79,9.05-36.25C265,897.21,265,897.66,265,898.11Z"></path><path class="cls-22" d="M322.56,896l-18.32,109.46H250.55L254,984.72v0c.35-1.31,11.25-62.22,12.2-71,.58-5.42,6.78-30.7-16.08-30.6-10.83,0-19.15,4.58-22.06,14.57.81-3.56,8.86-34.95,40.92-39.67,26.25-3.86,44.28,1.81,51.95,17.49A40.05,40.05,0,0,1,322.56,896Z"></path><path class="cls-23" d="M1039,876.49c-6.87-19-29.22-31.93-63.32-31.93-47.87,0-75.75,25-82.41,54.11h52.86c2.91-10,11.23-14.52,22.06-14.57,22.86-.1,16.66,25.18,16.08,30.6-1,8.77-11.85,69.68-12.2,71v0l-3.46,20.75h53.69L1040.56,897A40.05,40.05,0,0,0,1039,876.49Zm-66.19,79.9c-1.74,5.73-4.24,18.56-19.71,30.08A79.82,79.82,0,0,1,936,996c-22.23,9.32-55,7-60.15-28-2.29,27.76,16.32,41,44.84,41,12.6,0,23.82-2.59,33.48-8.62a57.56,57.56,0,0,0,16.69-16.09C974.47,970.79,973.86,961.63,972.76,956.39ZM948.26,927c-13.57,6.13-25.63,12.62-24.26,25,1.39,12.56,9.34,16.68,10,17-2.41-2.34-3.48-5.71-2.87-10,1.14-7.56,7.08-13.4,18.46-16,1.14-.26,2.34-.49,3.6-.68,4-.72,7.77-1.44,11.32-2.23a16.51,16.51,0,0,0,9.49-6.08l0-.06c7.68-10,8.92-27.79,9-36.25C982.48,913.06,964.31,919.78,948.26,927Z"></path><path class="cls-24" d="M924,952c1.39,12.56,9.34,16.68,10,17h0c2.53,2.46,6.56,3.77,11.68,3.77,10.83,0,22.25-5.87,27.1-16.37C970.52,963.78,967,983,936,996c-22.23,9.32-55,7-60.15-28q.21-2.73.72-5.66c5.83-35,33.71-48.28,67-50.78,26.72-2.05,37.6-4.92,39.47-13.82C982,926,921,925,924,952Z"></path><path class="cls-25" d="M970.86,984.26C958.39,1002,941.4,1009,920.69,1009c-28.52,0-47.13-13.2-44.84-41,5.15,35,37.92,37.31,60.15,28,31-13,34.52-32.22,36.76-39.61C973.86,961.63,974.47,970.79,970.86,984.26Z"></path><path class="cls-26" d="M970.86,984.26a57.56,57.56,0,0,1-16.69,16.09l-1.12-13.88c15.47-11.52,18-24.35,19.71-30.08C973.86,961.63,974.47,970.79,970.86,984.26Z"></path><path class="cls-27" d="M983,899.11l-.06.42c0,.3-.08.6-.13.9s-.07.33-.11.49-.11.52-.18.78-.09.34-.14.51-.14.48-.22.71-.13.35-.19.52-.17.45-.26.67-.15.35-.23.52-.2.42-.31.63-.17.34-.26.51-.22.4-.34.6l-.3.5-.38.58-.33.48-.42.56-.36.46c-.15.19-.31.37-.47.55l-.38.45-.5.54-.4.42-.63.6-.76.7c-.18.17-.37.34-.57.5l-.54.45-.52.42-.59.45-.53.4-.62.44-.54.39-.65.43-.56.37-.66.42-.58.36-.68.41-.61.36-.69.4-.64.36-.67.37-.71.38-.64.33-.82.43-.54.27-1.16.58-.23.11c-4.4,2.15-9.07,4.14-13.58,6.17h0c-13.57,6.12-25.63,12.61-24.26,25,1.39,12.56,9.34,16.68,10,17-2.41-2.34-3.48-5.71-2.87-10,1.16-7.69,7.31-13.6,19.07-16.1l.79-.16c.72-.14,1.44-.27,2.2-.39,4-.72,7.77-1.44,11.32-2.23a16.51,16.51,0,0,0,9.49-6.08l0-.06c7.68-10,8.92-27.79,9-36.25C983,898.21,983,898.66,983,899.11Z"></path><path class="cls-28" d="M1040.56,897l-18.32,109.46H968.55L972,985.72v0c.35-1.31,11.25-62.22,12.2-71,.58-5.42,6.78-30.7-16.08-30.6-10.83,0-19.15,4.58-22.06,14.57.81-3.56,8.86-34.95,40.92-39.67,26.25-3.86,44.28,1.81,52,17.49A40.05,40.05,0,0,1,1040.56,897Z"></path><polygon class="cls-29" points="396.33 962.02 394.89 970.75 394.88 970.76 396.33 962.02"></polygon><path class="cls-30" d="M367.08,792.37l-35.38,213.1h57.44l5.74-34.71h0l1.44-8.73.3-1.81,10.1-60.87h0l1.72-10.3.48-2.88,15.6-93.79Zm88.13,123.41,65.87-70.13H456.57l-40.16,47.57a33.36,33.36,0,0,0-7.84,20.26l-1,28.11a37.35,37.35,0,0,0,2.83,15.69l3.05,7.35,16.93,40.84h65.77l-40.85-89.58Z"></path><path class="cls-31" d="M496.11,1005.47H430.34l-16.93-40.84c.17-1.79.36-3.67.59-5.63,3.4-29.26,26.71-39.53,41.26-43.11Z"></path><path class="cls-32" d="M1263.08,792.37l-35.38,213.1h57.44l5.74-34.71h0l1.44-8.73.3-1.81,10.1-60.87h0l1.72-10.3.48-2.88,15.6-93.79Zm88.13,123.41,65.87-70.13h-64.51l-40.16,47.57a33.36,33.36,0,0,0-7.84,20.26l-1,28.11a37.35,37.35,0,0,0,2.83,15.69l3.05,7.35,16.93,40.84h65.77l-40.85-89.58Z"></path><path class="cls-33" d="M1392.11,1005.47h-65.77l-16.93-40.84c.17-1.79.36-3.67.59-5.63,3.4-29.26,26.71-39.53,41.26-43.11Z"></path><path class="cls-34" d="M666.33,953.86c-11.24,33.3-42.87,54.52-87.41,54.52-51.19,0-77.41-30.8-68.67-82.41,7-41.88,34.63-71.87,72.94-80.12C534,866,533.87,921.52,560,952a64.07,64.07,0,0,0,7.62,7.6c3.61,5.12,9.83,8.24,18.5,8.39a25.92,25.92,0,0,0,9.89-1.08c7.33-1.83,13.54-5.92,17.26-12l0,0c.47-.56.71-.89.71-.89l1.08-.14Z"></path><path class="cls-35" d="M1215,939c-10,47-44.54,69.52-89.08,69.52-51.19,0-77.41-30.8-68.67-82.41,7-41.88,34.63-71.87,72.94-80.12C1058,889,1116.51,954.93,1119,957c3.61,5.12,10.61,9.83,24,6,14-4,19-24,19-24Z"></path><path class="cls-36" d="M873.59,845.65c-4.16,23.3-23.72,41.62-49.11,46.61l-.42,2.08a50.87,50.87,0,0,1,16.42,3.12c-15.91,5.34-36.25,12-52.5,17.38a46.15,46.15,0,0,0-7.2-.52h-25.7l5.75-35.79h22c15,0,27-7.5,29.13-20.4,2.08-13.32-7.49-20.39-21.64-20.39H765.79S766,821,792,806c15.13-8.73,37.82-13.22,59.17-5.47C869.38,809.45,877,825.25,873.59,845.65Z"></path><path class="cls-37" d="M865.27,945.12c-5.83,35-38.71,60.35-84.91,60.35H745.29C774.7,998.59,809.83,984.36,813,959c2-16-5.83-32.06-11-37.21h0c-3-3.61-7.75-6-14.06-6.94q-1.2-.2-2.46-.3c6.08-8.45,18.54-21,38.56-20.32a50.48,50.48,0,0,1,10.44,1.45c.38.08.76.18,1.14.28l.18,0c.52.13,1,.28,1.53.42l.06,0c1,.3,2.06.64,3.05,1C858.51,904.27,869.18,921.62,865.27,945.12Z"></path></g></g></svg>